# xmcd CD database file
#
# Track frame offsets:
#	150
#	9008
#	20702
#	34296
#	50061
#	60331
#	70669
#	83050
#	98360
#	113108
#	127278
#	137553
#	152733
#
# Disc length: 2256 seconds
#
# Revision: 1
# Processed by: cddbd v1.5.2PL0 Copyright (c) Steve Scherf et al.
# Submitted via: Feurio! 1.68 - http://www.feurio.com
#
DISCID=a108ce0d
DTITLE=Various Artist - Country Stars 
DYEAR=1900
DGENRE=Country
TTITLE0=Jonny Hill - Ein Ring aus Feuer
TTITLE1=Dave Dudley - Six days on the road
TTITLE2=Tom Astor - Irgendwo am Horizont
TTITLE3=Gunter Gabriel - Damen wollen Kerle
TTITLE4=Freddy Quinn - Die schönste Frau von Texas
TTITLE5=Connie Francis - O lonesome me
TTITLE6=Truck Stop - Der wilde, wilde Westen
TTITLE7=Billy Ray Cyrus - Achy breaky heart
TTITLE8=Johnny Cash - Cat's in the caddle
TTITLE9=Volker Lechtenbrink - Junge, lass die Flasche steh'n
TTITLE10=Ronnie Rogers - Rosie's leaving
TTITLE11=Truck Stop - Ich möcht' so gern Dave Dudley hör'n
TTITLE12=The Tennessee Stars - Tom Dooley
EXTD=CD 1
EXTT0=Ring of fire
EXTT1=
EXTT2=
EXTT3=
EXTT4=The yellow rose of Texas
EXTT5=
EXTT6=
EXTT7=
EXTT8=
EXTT9=
EXTT10=
EXTT11=
EXTT12=
PLAYORDER=
